HIERARCHY
ROOT Hips
{
  OFFSET 3.13124 94.3669 -3.18751
  CHANNELS  6 Xposition Yposition Zposition Zrotation Xrotation Yrotation
  JOINT LeftUpLeg
  {
    OFFSET 8.64259 1.95398 -2.38835
    CHANNELS 3 Zrotation Xrotation Yrotation
    JOINT LeftLeg
    {
      OFFSET 43.7702 0 0
      CHANNELS 3 Zrotation Xrotation Yrotation
      JOINT LeftFoot
      {
        OFFSET 40.6238 0 0
        CHANNELS 3 Zrotation Xrotation Yrotation
        JOINT LeftToeBase
        {
          OFFSET 12.7242 0 0
          CHANNELS 3 Zrotation Xrotation Yrotation
          End Site
          {
            OFFSET 0 0 0
          }
        }
      }
    }
  }
  JOINT RightUpLeg
  {
    OFFSET -8.2249 1.95398 -2.59336
    CHANNELS 3 Zrotation Xrotation Yrotation
    JOINT RightLeg
    {
      OFFSET 43.5653 0 0
      CHANNELS 3 Zrotation Xrotation Yrotation
      JOINT RightFoot
      {
        OFFSET 40.6238 0 0
        CHANNELS 3 Zrotation Xrotation Yrotation
        JOINT RightToeBase
        {
          OFFSET 12.7242 0 0
          CHANNELS 3 Zrotation Xrotation Yrotation
          End Site
          {
            OFFSET 0 0 0
          }
        }
      }
    }
  }
  JOINT Spine
  {
    OFFSET 0.165834 0.87714 6.61349
    CHANNELS 3 Zrotation Xrotation Yrotation
    JOINT Spine1
    {
      OFFSET 7.38962 1.71661e-005 0
      CHANNELS 3 Zrotation Xrotation Yrotation
      JOINT Spine2
      {
        OFFSET 11.9445 1.14441e-005 0
        CHANNELS 3 Zrotation Xrotation Yrotation
        JOINT Spine3
        {
          OFFSET 14.7254 4.19617e-005 0
          CHANNELS 3 Zrotation Xrotation Yrotation
          JOINT Spine4
          {
            OFFSET 10.9679 0 0
            CHANNELS 3 Zrotation Xrotation Yrotation
            JOINT RightShoulder
            {
              OFFSET 2.46616 -1.6653 3.69651
              CHANNELS 3 Zrotation Xrotation Yrotation
              JOINT RightArm
              {
                OFFSET 13.0012 0 0
                CHANNELS 3 Zrotation Xrotation Yrotation
                JOINT RightForeArm
                {
                  OFFSET 28.7848 1.52588e-005 0
                  CHANNELS 3 Zrotation Xrotation Yrotation
                  JOINT RightHand
                  {
                    OFFSET 26.5688 1.52588e-005 0
                    CHANNELS 3 Zrotation Xrotation Yrotation
                    End Site
                    {
                      OFFSET 0 0 0
                    }
                  }
                }
              }
            }
            JOINT LeftShoulder
            {
              OFFSET 2.38034 -1.29275 -3.75231
              CHANNELS 3 Zrotation Xrotation Yrotation
              JOINT LeftArm
              {
                OFFSET 16.3182 6.10352e-005 0
                CHANNELS 3 Zrotation Xrotation Yrotation
                JOINT LeftForeArm
                {
                  OFFSET 27.0901 0 0
                  CHANNELS 3 Zrotation Xrotation Yrotation
                  JOINT LeftHand
                  {
                    OFFSET 24.5451 1.52588e-005 0
                    CHANNELS 3 Zrotation Xrotation Yrotation
                    End Site
                    {
                      OFFSET 0 0 0
                    }
                  }
                }
              }
            }
            JOINT Neck
            {
              OFFSET 5.0226 -0.0266342 0
              CHANNELS 3 Zrotation Xrotation Yrotation
              JOINT Head
              {
                OFFSET 6.69363 2.86102e-005 0
                CHANNELS 3 Zrotation Xrotation Yrotation
                End Site
                {
                  OFFSET 0 0 0
                }
              }
            }
          }
        }
      }
    }
  }
}
MOTION
Frames:	10
Frame Time:	0.0333333
-102.64 91.2443 4.02377 -95.3535 -52.7786 -98.341 -171.489 3.0948 86.3827 -21.6969 -9.79834 -0.0604188 68.3416 3.885 1.98247 28.7808 4.79547e-006 -8.53711e-006 174.296 14.6164 76.8305 -3.85592 1.37778 0.0861491 42.3142 -4.68457 -3.31192 28.7808 1.47974e-005 3.24904e-005 0.293294 7.67456 -88.4731 11.5376 1.26367 0.327713 -0.132817 1.27678 0.271517 -22.6716 1.10723 0.693795 -2.65901 1.1072 0.693775 80.8508 -53.0678 -113.488 21.5607 -0.464128 -21.5494 13.5878 -32.7012 -152.355 4.15867 1.3053 26.0997 -107.631 -51.0978 53.6665 -13.5959 33.3545 -42.3347 15.9845 -9.3044 -119.692 46.831 -6.86045 -19.059 -10.7162 4.49268 -0.952342 -41.4307 4.43837 0.58316 
-105.222 89.8248 5.19712 -95.6622 -55.0657 -99.9116 -170.633 4.40482 86.5642 -27.4127 -7.17118 0.168629 72.6356 2.77949 1.33158 28.7808 4.79547e-006 -8.53711e-006 173.851 17.4717 74.434 -3.78016 -12.5416 -0.672479 58.7775 -0.172234 0.119822 28.7808 1.47974e-005 3.24904e-005 -0.0955764 7.64775 -87.4033 11.6005 1.18452 0.353215 -0.0699203 1.19891 0.300713 -22.6081 1.02355 0.692073 -2.59545 1.02353 0.692058 80.3635 -53.5891 -113.995 22.115 0.709417 -20.0813 12.8415 -31.5645 -152.716 6.86597 1.94941 24.2357 -107.824 -50.2402 53.0005 -13.6531 33.1559 -40.8734 14.8061 -9.14226 -121.198 44.8989 -6.11976 -18.0892 -10.3494 4.22207 -1.95115 -41.3378 4.24932 0.478809 
-107.534 89.5482 6.27409 -96.3384 -57.4703 -100.943 -170.179 3.24282 87.5894 -27.647 -4.09104 0.556037 73.8713 2.04827 0.971602 28.7808 4.79547e-006 -8.53711e-006 173.405 18.5391 73.7202 -3.84479 -23.0918 -1.24513 60.5348 -1.25134 -0.570212 28.7808 1.47974e-005 3.24904e-005 -0.176136 7.60058 -87.3678 11.6912 1.07059 0.427331 0.0206323 1.08822 0.379896 -22.5166 0.893473 0.728432 -2.50397 0.893451 0.728412 79.0558 -53.9916 -115.696 23.1212 5.00507 -21.4278 14.8615 -36.1653 -152.699 6.68948 2.41054 31.7595 -108.261 -50.1848 52.3669 -14.1745 32.7576 -36.9574 13.4176 -9.22931 -124.107 41.2794 -4.96876 -16.5123 -10.8718 3.60741 -2.50493 -40.3522 3.62049 0.55891 
-110.196 89.2139 7.12661 -97.0573 -60.1247 -101.872 -169.496 2.65912 89.2182 -28.1069 -0.967972 0.97472 74.65 1.47058 0.692307 28.7808 4.79547e-006 -8.53711e-006 173.125 17.9833 73.2437 -3.96425 -30.4918 -1.67102 63.0077 2.7232 1.7296 28.7808 1.47974e-005 3.24904e-005 -0.170759 7.57761 -87.2885 11.7391 1.08957 0.441085 0.0685052 1.10803 0.392819 -22.4688 0.905807 0.748566 -2.45613 0.905804 0.748555 78.2119 -54.4417 -116.713 22.6084 3.37221 -21.2272 13.1374 -33.7616 -153.741 4.56402 1.62704 30.3809 -108.887 -50.2323 51.5428 -14.6933 32.0744 -38.7446 15.2817 -9.40226 -121.133 42.5691 -5.42253 -17.2213 -10.6803 3.37659 -2.92749 -41.0304 3.52965 0.209567 
-113.144 89.1954 7.67386 -97.8014 -62.8294 -102.025 -168.532 1.95711 91.833 -27.5289 3.02139 1.79161 74.5007 0.233954 0.115506 28.7808 4.79547e-006 -8.53711e-006 173.249 15.6653 74.2498 -3.9319 -28.9048 -1.58017 61.3156 2.87299 1.91247 28.7808 1.47974e-005 3.24904e-005 -0.0240396 7.54712 -87.3786 11.7961 1.21158 0.469278 0.125699 1.23027 0.415544 -22.4124 1.01582 0.817176 -2.39974 1.0158 0.817126 73.6131 -55.0427 -122.674 22.54 4.25135 -23.5573 12.7894 -35.0945 -155.081 0.228897 0.309013 37.9948 -109.254 -48.4585 50.1228 -13.7031 31.9018 -38.6468 13.0557 -8.80794 -123.505 43.3631 -4.08993 -13.8334 -11.778 2.99979 -4.98073 -39.7471 2.68062 1.28295 
-116.346 89.2062 7.91745 -97.6068 -65.9443 -101.079 -167.702 2.64603 94.9003 -27.1997 7.21367 2.89927 73.4986 -1.38591 -0.667613 28.7808 4.79547e-006 -8.53711e-006 174.032 13.8249 76.086 -3.809 -19.5564 -1.05696 58.752 4.94247 3.35424 28.7808 1.47974e-005 3.24904e-005 -0.351005 6.23804 -86.1421 14.3691 1.00294 3.17336 2.69414 1.15304 3.12511 -19.8082 -0.016273 3.33457 0.204468 -0.0162945 3.33456 31.4045 -63.7202 -168.281 25.4383 11.5479 -10.611 12.9682 -34.7633 -154.616 8.65142 3.93848 41.5454 -111.764 -35.0125 38.7011 -22.2598 19.756 -27.1336 9.48013 -4.5605 -113.421 48.1704 -4.86669 -14.5326 -38.4262 9.6746 -32.6944 -25.1484 -1.16618 23.7831 
-119.521 89.4365 7.66445 -97.8876 -69.4018 -100.239 -166.924 4.53825 97.9385 -28.1308 11.4103 4.49558 71.0672 -3.32671 -1.71243 28.7808 4.79547e-006 -8.53711e-006 174.907 12.1345 78.279 -3.7797 -12.9734 -0.701805 59.4287 2.95866 2.05706 28.7808 1.47974e-005 3.24904e-005 -0.566109 6.58507 -86.5384 13.6626 0.393845 2.81174 1.9887 0.517018 2.7943 -20.5224 -0.468182 2.79742 -0.50973 -0.468197 2.79739 31.2492 -61.3026 -170.125 26.8086 16.3917 -18.5958 22.0966 -45.8988 -148.488 3.37272 1.99687 49.3734 -108.219 -35.8146 44.6356 -18.9707 21.267 -35.3676 9.05234 -4.82716 -115.919 53.6807 -3.66324 -11.0641 -33.3769 8.8383 -28.0903 -28.5267 0.0713668 20.9863 
-122.675 89.5711 7.07918 -99.0058 -73.3307 -100.634 -167.799 7.32095 99.3576 -30.597 12.74 7.31184 68.0916 -4.91625 -2.68448 28.7808 4.79547e-006 -8.53711e-006 175.915 10.7669 80.4054 -3.80773 -5.50853 -0.300131 60.6269 1.27838 0.953405 28.7808 1.47974e-005 3.24904e-005 -0.797732 6.67906 -86.7307 13.4773 -0.146778 2.77061 1.80341 -0.0247107 2.77263 -20.7102 -0.972677 2.59949 -0.697544 -0.972669 2.59949 23.4578 -58.9773 -179.706 27.4215 17.6226 -25.8702 32.3433 -52.2105 -139.849 -6.18502 -3.3705 56.9843 -108.675 -37.751 45.1485 -17.8869 21.2026 -35.6824 7.64624 -4.66227 -118.972 54.769 -1.97735 -7.83094 -37.4004 10.6182 -23.1549 -23.9638 3.09107 19.3581 
-125.836 89.7436 6.44719 -100.797 -79.1648 -102.13 -169.739 11.382 99.4342 -33.9843 11.4993 10.6608 63.2152 -5.62076 -3.39653 28.7808 4.79547e-006 -8.53711e-006 176.675 9.78625 81.8432 -3.92128 2.99109 0.172286 62.6797 1.89177 1.2088 28.7808 1.47974e-005 3.24904e-005 -1.19566 6.68028 -86.9387 13.4526 -1.08636 2.86232 1.77884 -0.95939 2.90748 -20.7414 -1.89619 2.40402 -0.728712 -1.8962 2.404 16.0915 -56.5931 171.453 25.3131 12.304 -30.9834 40.376 -54.625 -132.617 -21.0431 -12.8044 58.5979 -108.892 -40.9153 46.6672 -17.7672 21.3625 -34.6395 8.58961 -5.3823 -120.282 54.9477 -0.0507586 -4.29731 -44.3429 12.1152 -15.831 -17.0808 6.74818 16.4523 
-128.666 90.0713 5.75158 -94.4717 -87.3768 -96.1459 -173.704 18.1302 97.7311 -37.3306 -0.00919504 11.968 55.8211 -3.85912 -2.94846 28.7808 4.79547e-006 -8.53711e-006 177.042 10.0611 82.2745 -4.10812 10.673 0.630431 64.0478 1.91934 1.14624 28.7808 1.47974e-005 3.24904e-005 -1.97305 6.50766 -86.9073 13.7927 -2.34148 3.0149 2.11999 -2.20669 3.11227 -20.4156 -3.13863 2.17043 -0.402988 -3.13862 2.17043 9.945 -55.2373 164.834 24.172 8.79912 -28.8772 41.0974 -52.6146 -131.175 -23.363 -14.45 59.2983 -109.173 -43.4088 47.641 -18.3791 21.0514 -32.1669 8.29065 -5.33221 -120.927 54.899 0.672203 -2.97473 -50.6722 12.5312 -9.72555 -12.128 9.18503 13.916 
